# xmcd
#
# Track frame offsets:
#	150
#	14417
#	28460
#	43895
#	57170
#	73907
#	86817
#	101430
#	117360
#	133615
#	146857
#	159505
#	172155
#	185792
#	198995
#	211745
#	226325
#	242717
#	255915
#	269212
#	279965
#	291817
#	304157
#	318530
#	330090
#
# Disc length: 4567 seconds
#
# Revision: 0
# Processed by: cddbd v1.5.1PL0 Copyright (c) Steve Scherf et al.
# Submitted via: dBpowerAMP V4.0
#
DISCID=8111d519
DTITLE=Joe Pullum - Joe Pullum, Andy Boy and Walter "Cowboy" Washington
DYEAR=1995
DGENRE=Blues
TTITLE0=Ice Man Blues-Joe Pullum 1935-36
TTITLE1=Joe Louis Is The Man-Joe Pullum 1935-36
TTITLE2=Bonus Blues-Joe Pullum 1935-36
TTITLE3=Come On If Your Comin'-Joe Pullum 1935-36
TTITLE4=Bedroom Blues-Joe Pullum 1935-36
TTITLE5=Hattie Green-Joe Pullum 1935-36
TTITLE6=Woman Trouble Blues-Joe Pullum 1935-36
TTITLE7=Swing Them Blues-Joe Pullum 1935-36
TTITLE8=Evil Blues-Andy Boy 1937
TTITLE9=House Raid Blues-Andy Boy 1937
TTITLE10=Too Late Blues-Andy Boy 1937
TTITLE11=Church Street Blues-Andy Boy 1937
TTITLE12=Out O'Line Blues-Andy Boy 1937
TTITLE13=Lonesome With The Blues-Andy Boy 1937
TTITLE14=Jive Blues-Andy Boy 1937
TTITLE15=Yellow Gal Blues-Andy Boy 1937
TTITLE16=Bad Managing Blues-Walter "Cowboy" Washington 1937
TTITLE17=I Need You Blues-Walter "Cowboy" Washington 1937
TTITLE18=Ice Pick Mama-Walter "Cowboy" Washington 1937
TTITLE19=West Dallas Woman-Walter "Cowboy" Washington 1937
TTITLE20=My Woman Part 1-Joe Pullum 1951
TTITLE21=My Woman Part 2-Joe Pullum 1951
TTITLE22=My Woman Part 1 (alt. take)-Joe Pullum 1951
TTITLE23=You're Alright With Me-Joe Pullum 1951
TTITLE24=Alberta-Joe Pullum 1951
EXTD=william hale
EXTT0=
EXTT1=
EXTT2=
EXTT3=
EXTT4=
EXTT5=
EXTT6=
EXTT7=
EXTT8=
EXTT9=
EXTT10=
EXTT11=
EXTT12=
EXTT13=
EXTT14=
EXTT15=
EXTT16=
EXTT17=
EXTT18=
EXTT19=
EXTT20=
EXTT21=
EXTT22=
EXTT23=
EXTT24=
PLAYORDER=
